HIERARCHY
ROOT pelvis
{
  OFFSET 0 100 0
  CHANNELS 6 Xposition Yposition Zposition Zrotation Xrotation Yrotation
  JOINT pelvis_right_femur
  {
    OFFSET -10.78128 -3.44521 -0.5502486
    CHANNELS 3 Zrotation Xrotation Yrotation
    JOINT right_femur_tibia
    {
      OFFSET -0.8047443 -44.0398 -0.1307829
      CHANNELS 3 Zrotation Xrotation Yrotation
      JOINT right_tibia_foot
      {
        OFFSET 3.006224 -47.83518 -5
        CHANNELS 3 Zrotation Xrotation Yrotation
        End Site
        {
          OFFSET 0 -5 15
        }
      }
    }
  }
  JOINT pelvis_left_femur
  {
    OFFSET 10.78128 -3.44521 -0.5502486
    CHANNELS 3 Zrotation Xrotation Yrotation
    JOINT left_femur_tibia
    {
      OFFSET 0.8047443 -44.0398 -0.1307829
      CHANNELS 3 Zrotation Xrotation Yrotation
      JOINT left_tibia_foot
      {
        OFFSET -4.370144 -48.10324 -4.275266
        CHANNELS 3 Zrotation Xrotation Yrotation
        End Site
        {
          OFFSET 0 -5 15
        }
      }
    }
  }
  JOINT pelvis_spine1
  {
    OFFSET 0 6.468898 -3.129235
    CHANNELS 3 Zrotation Xrotation Yrotation
    JOINT spine1
    {
      OFFSET 0 23.15396 4.99043
      CHANNELS 3 Zrotation Xrotation Yrotation
      JOINT spine2
      {
        OFFSET 0 20.79997 -5.064912
        CHANNELS 3 Zrotation Xrotation Yrotation
        JOINT neck
        {
          OFFSET 0 14.38658 9.616178
          CHANNELS 3 Zrotation Xrotation Yrotation
          End Site
          {
            OFFSET 0 20 0
          }
        }
      }
      JOINT right_manubrium
      {
        OFFSET -5.722621 16.35077 3.967754
        CHANNELS 3 Zrotation Xrotation Yrotation
        JOINT right_clavicle
        {
          OFFSET -13.16364 1.694482 -4.693211
          CHANNELS 3 Zrotation Xrotation Yrotation
          JOINT right_humerus
          {
            OFFSET -28.5034 -0.3100689 -2.792744
            CHANNELS 3 Zrotation Xrotation Yrotation
            JOINT right_radius
            {
              OFFSET -25.15693 0.02248979 -1.271978
              CHANNELS 3 Zrotation Xrotation Yrotation
              End Site
              {
                OFFSET -15 0 0
              }
            }
          }
        }
      }
      JOINT left_manubrium
      {
        OFFSET 5.722621 16.35077 3.967754
        CHANNELS 3 Zrotation Xrotation Yrotation
        JOINT left_clavicle
        {
          OFFSET 13.16364 1.694482 -4.693211
          CHANNELS 3 Zrotation Xrotation Yrotation
          JOINT left_humerus
          {
            OFFSET 29.39168 -1.063119 -2.237045
            CHANNELS 3 Zrotation Xrotation Yrotation
            JOINT left_radius
            {
              OFFSET 24.59957 -0.9528479 0.9047498
              CHANNELS 3 Zrotation Xrotation Yrotation
              End Site
              {
                OFFSET 15 -0 -0
              }
            }
          }
        }
      }
    }
  }
}
MOTION
Frames: 8
Frame Time: 0.0416666666667
17.45085 103.2725 245.2522 0.6691212 -6.896648 -1.117262 2.449493 12.12964 4.506937 -1.337796e-09 27.34692 9.654825e-10 -3.734143 -10.68056 -2.509282 -1.790112 -17.47874 -7.946071 -2.060679e-10 24.45215 -4.189051e-10 -2.600271 -7.565519 20.58331 -1.387944 -0.6263858 7.595236 -0.4903299 11.10912 -3.814125 2.066201 22.725 4.513615 1.896003 -18.94155 6.97259 1.790012 -22.30309 11.25002 83.40019 26.55925 -8.248477 -3.085561e-11 -1.114014e-10 21.14649 -21.91407 11.76158 12.13872 3.95788 -17.35128 -3.66407 -94.68849 21.11392 27.16372 -7.3249e-11 -9.428782e-11 -8.417342 3.049012 11.67513 10.7946
18.06398 103.3513 250.6667 0.6004973 -6.63581 -1.418968 2.581208 9.353648 4.4086 -1.243118e-09 27.2238 9.134945e-10 -3.888881 -10.23705 -2.733136 -2.219532 -14.98426 -8.501846 -1.812205e-10 24.30862 -4.130477e-10 -2.413519 -8.390045 20.37793 -1.44565 -0.6833317 7.267766 -0.2957915 11.07359 -4.171015 2.030948 22.78842 4.672435 1.96558 -19.2114 7.111919 1.925568 -21.92374 11.26225 84.26877 26.93332 -9.48086 -2.301303e-11 -1.128145e-10 20.28812 -21.42283 11.77947 11.74381 4.147368 -17.82936 -3.72815 -94.45929 21.39907 26.15569 -7.232456e-11 -9.245346e-11 -9.674333 3.342079 11.90368 10.47589
18.5571 103.426 256.0173 0.5285603 -6.273212 -1.666399 2.757894 5.495728 4.287774 -1.112403e-09 27.06327 8.421531e-10 -4.102633 -9.623241 -3.043345 -2.772671 -11.51554 -9.243785 -1.467104e-10 24.11856 -4.04959e-10 -2.158392 -9.541839 20.10541 -1.527034 -0.7623143 6.815032 -0.02556797 11.02669 -4.66885 1.982013 22.88555 4.895332 2.065036 -19.594 7.309768 2.115239 -21.4046 11.28265 85.5412 27.43072 -11.2217 -1.213151e-11 -1.150293e-10 19.10215 -20.74838 11.80289 11.19967 4.412256 -18.50178 -3.816067 -94.17948 21.78798 24.76547 -7.101606e-11 -8.998328e-11 -11.42658 3.753227 12.22393 10.03439
18.91177 103.494 261.2469 0.4533983 -5.779957 -1.845097 2.944651 0.7286759 4.128528 -9.422165e-10 26.66129 7.466367e-10 -4.326004 -8.798227 -3.393586 -3.358752 -7.176459 -10.03386 -1.039738e-10 23.70277 -3.917731e-10 -1.850509 -10.88045 19.62614 -1.616354 -0.8517263 6.208863 0.3009424 10.8828 -5.241789 1.913918 22.83008 5.131805 2.16193 -19.91468 7.492066 2.313066 -20.60868 11.2114 86.40811 27.90206 -13.12335 1.099599e-12 -1.171993e-10 17.50493 -19.75434 11.74873 10.43153 4.706505 -19.18422 -3.89571 -93.06617 22.27121 22.75843 -6.871642e-11 -8.641771e-11 -13.48551 4.239832 12.51694 9.416152
19.1341 103.5455 266.3469 0.3869692 -5.275953 -1.951426 3.119251 -4.065281 3.983332 -7.70912e-10 26.22377 6.509875e-10 -4.539404 -7.956802 -3.737224 -3.883309 -2.800601 -10.77637 -6.098794e-11 23.25506 -3.777063e-10 -1.551384 -12.21579 19.12691 -1.705182 -0.9395191 5.591563 0.626449 10.72156 -5.80996 1.84463 22.74542 5.362977 2.255955 -20.21205 7.665833 2.506708 -19.78336 11.1222 87.1918 28.33688 -15.00704 1.433398e-11 -1.196274e-10 15.87728 -18.72979 11.66913 9.644769 4.997146 -19.84648 -3.968405 -91.81473 22.72169 20.6736 -6.619794e-11 -8.284398e-11 -15.5385 4.728752 12.79059 8.780282
19.23271 103.5825 271.2874 0.327163 -4.750759 -1.986855 3.260905 -8.711009 3.832535 -5.991933e-10 25.63061 5.540824e-10 -4.711556 -7.086458 -4.042743 -4.319183 1.481588 -11.40276 -1.92095e-11 22.67088 -3.611522e-10 -1.274306 -13.44176 18.52355 -1.782111 -1.017687 4.95454 0.933978 10.4938 -6.324254 1.772586 22.51756 5.553801 2.324028 -20.37409 7.781554 2.66714 -18.85571 10.9562 87.35522 28.67713 -16.61789 2.698948e-11 -1.216375e-10 14.19051 -17.60658 11.51398 8.806425 5.251737 -20.3647 -4.015805 -89.95628 23.10215 18.38788 -6.314749e-11 -7.90101e-11 -17.4397 5.183924 12.96886 8.104949
19.22026 103.6047 276.0742 0.2758042 -4.251534 -1.954616 3.386991 -13.09864 3.701074 -4.381744e-10 25.05699 4.64312e-10 -4.867446 -6.259542 -4.326683 -4.690938 5.530934 -11.97122 2.028962e-11 22.10724 -3.44945e-10 -1.023793 -14.59746 17.94827 -1.854799 -1.090272 4.349776 1.221779 10.27096 -6.805721 1.704992 22.29064 5.730866 2.386763 -20.517 7.886872 2.81865 -17.96988 10.79199 87.48251 28.99151 -18.13142 3.889253e-11 -1.238391e-10 12.58886 -16.53828 11.34796 8.011846 5.490302 -20.84444 -4.056918 -88.14536 23.3992 16.18572 -6.012826e-11 -7.546375e-11 -19.22812 5.614356 13.1262 7.461144
19.11558 103.6132 280.7247 0.2343281 -3.811936 -1.862647 3.492887 -16.94537 3.594264 -2.980403e-10 24.54599 3.871178e-10 -4.999297 -5.531494 -4.572438 -4.987486 9.084171 -12.45635 5.49599e-11 21.60588 -3.30312e-10 -0.8131443 -15.61 17.44111 -1.9187 -1.15301 3.817658 1.47204 10.0705 -7.22495 1.646199 22.08457 5.88407 2.440858 -20.63615 7.976828 2.952065 -17.18747 10.64327 87.58195 29.26319 -19.45566 4.928393e-11 -1.260235e-10 11.17948 -15.59804 11.18767 7.314534 5.698404 -21.2592 -4.090397 -86.52543 23.60753 14.22591 -5.738078e-11 -7.242451e-11 -20.79173 5.9924 13.25658 6.892876
